<svg width="21" height="18" viewBox="0 0 21 18" fill="none" xmlns="http://www.w3.org/2000/svg">
<path d="M10.5 18L10.1294 17.697C2.16176 11.3333 0 9.09091 0 5.45455C0 2.42424 2.47059 0 5.55882 0C8.09118 0 9.51176 1.39394 10.5 2.48485C11.4882 1.39394 12.9088 0 15.4412 0C18.5294 0 21 2.42424 21 5.45455C21 9.09091 18.8382 11.3333 10.8706 17.697L10.5 18ZM5.55882 1.21212C3.15 1.21212 1.23529 3.09091 1.23529 5.45455C1.23529 8.54545 3.21176 10.6061 10.5 16.4242C17.7882 10.6061 19.7647 8.54545 19.7647 5.45455C19.7647 3.09091 17.85 1.21212 15.4412 1.21212C13.2794 1.21212 12.1059 2.48485 11.1794 3.51515L10.5 4.30303L9.82059 3.51515C8.89412 2.48485 7.72059 1.21212 5.55882 1.21212Z" fill="white"/>
</svg>
