<svg width="20" height="19" viewBox="0 0 20 17" fill="none" xmlns="http://www.w3.org/2000/svg">
<path fill-rule="evenodd" clip-rule="evenodd" d="M19.4484 0.31428C18.6548 0.805581 17.778 1.16289 16.8408 1.35407C16.0943 0.520714 15.0274 0 13.8462 0C11.582 0 9.74448 1.92163 9.74448 4.29153C9.74448 4.62814 9.77972 4.95441 9.85021 5.26869C6.44007 5.08949 3.41708 3.38301 1.39214 0.783249C1.03864 1.41944 0.836782 2.15748 0.836782 2.94345C0.836782 4.43151 1.56089 5.74528 2.66254 6.51491C1.99076 6.49422 1.3569 6.29922 0.802606 5.98004V6.03233C0.802606 8.11246 2.21718 9.84781 4.0958 10.2405C3.7519 10.3413 3.38878 10.3919 3.01444 10.3919C2.75011 10.3919 2.49219 10.3658 2.24228 10.3157C2.76453 12.02 4.27896 13.2613 6.07481 13.2945C4.67092 14.446 2.9007 15.1323 0.978827 15.1323C0.647745 15.1323 0.320402 15.1127 0 15.0735C1.81561 16.2892 3.97351 17 6.29002 17C13.8381 17 17.9644 10.4617 17.9644 4.78991C17.9644 4.60309 17.9612 4.41681 17.9542 4.2338C18.7558 3.62866 19.4521 2.87319 20 2.01259C19.2652 2.35356 18.4738 2.58451 17.644 2.68799C18.4914 2.15748 19.1419 1.31649 19.4484 0.31428Z" fill="#373F41"/>
</svg>
